<svg width="32" height="32" viewBox="0 0 32 32" fill="none" xmlns="http://www.w3.org/2000/svg">
<path d="M23.8732 22.0387C19.7007 22.0387 16.7722 19.1621 16.7722 15.0673C16.7722 11.0245 19.7007 8.1478 23.8732 8.1478C28.0456 8.1478 31 11.0245 31 15.0673C31 19.1621 28.0456 22.0387 23.8732 22.0387ZM23.8732 18.3068C25.6095 18.3068 26.8276 16.9851 26.8276 15.0673C26.8276 13.2014 25.6095 11.8797 23.8732 11.8797C22.1627 11.8797 20.9187 13.2014 20.9187 15.0673C20.9187 16.9851 22.1627 18.3068 23.8732 18.3068Z" fill="white"/>
<path d="M5.76853 20.7948L1.28508 11.1281C0.818589 10.0915 1.25916 8.82161 2.34763 8.32921C2.60679 8.19963 2.89186 8.1478 3.15102 8.1478C3.95442 8.1478 4.75781 8.66611 5.14655 9.54726L7.89364 15.8448L10.6666 9.54726C11.0295 8.66611 11.8329 8.1478 12.6622 8.1478C12.9213 8.1478 13.1805 8.19963 13.4396 8.32921C14.5281 8.82161 14.9946 10.0915 14.5022 11.1281L9.75958 21.4168C8.28238 24.734 7.53081 27.0664 3.87667 27.0664H2.91778C1.85523 27.0664 1 26.2371 1 25.2264C1 24.2157 1.85523 23.3864 2.91778 23.3864H3.46201C4.55048 23.3864 4.91331 22.7385 5.43162 21.5463L5.76853 20.7948Z" fill="white"/>
</svg>
